<svg width="1024" height="1024" viewBox="0 0 1024 1024" fill="none" xmlns="http://www.w3.org/2000/svg">
  <!-- Background with Gradient -->
  <defs>
    <linearGradient id="iconGradient" x1="0%" y1="0%" x2="100%" y2="100%">
      <stop offset="0%" style="stop-color:#4f46e5" />
      <stop offset="100%" style="stop-color:#6366f1" />
    </linearGradient>
    <filter id="glow" x="-20%" y="-20%" width="140%" height="140%">
      <feGaussianBlur stdDeviation="30" result="blur" />
      <feComposite in="SourceGraphic" in2="blur" operator="over" />
    </filter>
  </defs>

  <!-- Shape -->
  <rect x="128" y="128" width="768" height="768" rx="160" fill="url(#iconGradient)" />
  
  <!-- Subtle Document Background -->
  <path d="M300 300 H724 V550 L574 700 H300 V300Z" fill="white" fill-opacity="0.1" />
  <path d="M724 550 H574 V700 L724 550Z" fill="white" fill-opacity="0.2" />

  <!-- Code Brackets -->
  <path d="M420 380 L350 480 L420 580" stroke="white" stroke-width="60" stroke-linecap="round" stroke-linejoin="round" />
  <path d="M604 380 L674 480 L604 580" stroke="white" stroke-width="60" stroke-linecap="round" stroke-linejoin="round" />
  
  <!-- Copyright Symbol -->
  <circle cx="680" cy="680" r="100" fill="white" />
  <text x="680" y="715" font-family="Arial" font-size="110" font-weight="bold" fill="#4f46e5" text-anchor="middle">©</text>
  
  <!-- Lines of 'Code' -->
  <rect x="420" y="475" width="184" height="15" rx="7.5" fill="white" fill-opacity="0.5" />
  <rect x="440" y="430" width="144" height="15" rx="7.5" fill="white" fill-opacity="0.3" />
  <rect x="440" y="520" width="144" height="15" rx="7.5" fill="white" fill-opacity="0.3" />
</svg>
